PathFileType        4      (X/Y/Z)      C:\Users\pc\Desktop\IMUTRC\Sujet_01\Sujet_01_Tpose.trc         
DataRate	CameraRate	NumFrames	NumMarkers	Units	OrigDataRate	OrigDataStartFrame	OrigNumFrames
60.0	60.0	4	64	mm	60.0	100	114
Frame#	Time	pHipOrigin			pRightASI			pLeftASI			pRightCSI			pLeftCSI			pRightIschialTub			pLeftIschialTub			pSacrum			pL5SpinalProcess			pL3SpinalProcess			pT12SpinalProcess			pIJ			pT4SpinalProcess			pT8SpinalProcess			pPX			pC7SpinalProcess			pTopOfHead			pRightAuricularis			pLeftAuricularis			pBackOfHead			pRightAcromion			pLeftAcromion			pRightArmLatEpicondyle			pRightArmMedEpicondyle			pLeftArmLatEpicondyle			pLeftArmMedEpicondyle			pRightUlnarStyloid			pRightRadialStyloid			pRightOlecranon			pLeftUlnarStyloid			pLeftRadialStyloid			pLeftOlecranon			pRightTopOfHand			pRightPinky			pRightBallHand			pLeftTopOfHand			pLeftPinky			pLeftBallHand			pRightGreaterTrochanter			pRightKneeLatEpicondyle			pRightKneeMedEpicondyle			pRightPatella			pLeftGreaterTrochanter			pLeftKneeLatEpicondyle			pLeftKneeMedEpicondyle			pLeftPatella			pRightTibialTub			pRightLatMalleolus			pRightMedMalleolus			pLeftTibialTub			pLeftLatMalleolus			pLeftMedMalleolus			pRightHeelFoot			pRightFirstMetatarsal			pRightFifthMetatarsal			pRightPivotFoot			pRightHeelCenter			pRightToe			pLeftHeelFoot			pLeftFirstMetatarsal			pLeftFifthMetatarsal			pLeftPivotFoot			pLeftHeelCenter			pLeftToe			
		X1	Y1	Z1	X2	Y2	Z2	X3	Y3	Z3	X4	Y4	Z4	X5	Y5	Z5	X6	Y6	Z6	X7	Y7	Z7	X8	Y8	Z8	X9	Y9	Z9	X10	Y10	Z10	X11	Y11	Z11	X12	Y12	Z12	X13	Y13	Z13	X14	Y14	Z14	X15	Y15	Z15	X16	Y16	Z16	X17	Y17	Z17	X18	Y18	Z18	X19	Y19	Z19	X20	Y20	Z20	X21	Y21	Z21	X22	Y22	Z22	X23	Y23	Z23	X24	Y24	Z24	X25	Y25	Z25	X26	Y26	Z26	X27	Y27	Z27	X28	Y28	Z28	X29	Y29	Z29	X30	Y30	Z30	X31	Y31	Z31	X32	Y32	Z32	X33	Y33	Z33	X34	Y34	Z34	X35	Y35	Z35	X36	Y36	Z36	X37	Y37	Z37	X38	Y38	Z38	X39	Y39	Z39	X40	Y40	Z40	X41	Y41	Z41	X42	Y42	Z42	X43	Y43	Z43	X44	Y44	Z44	X45	Y45	Z45	X46	Y46	Z46	X47	Y47	Z47	X48	Y48	Z48	X49	Y49	Z49	X50	Y50	Z50	X51	Y51	Z51	X52	Y52	Z52	X53	Y53	Z53	X54	Y54	Z54	X55	Y55	Z55	X56	Y56	Z56	X57	Y57	Z57	X58	Y58	Z58	X59	Y59	Z59	X60	Y60	Z60	X61	Y61	Z61	X62	Y62	Z62	X63	Y63	Z63	X64	Y64	Z64	
100	1.65	0.0	1249.97542	7.653891985579342E-14	28.434319999999982	1347.13128	131.8949100000001	71.55867000000002	1348.01394	-113.6742499999999	-14.753060000000012	1403.6847	102.01050000000008	20.67951000000001	1404.44126	-99.86689999999992	-53.148860000000006	1192.09802	42.493870000000065	-35.43256999999999	1192.4763	-58.44482999999994	-62.35376	1262.39574	-10.90717999999993	-39.21541	1352.86859	-6.683009999999922	-33.09982	1457.21184	-5.926439999999916	-34.17163	1552.72847	-6.746059999999909	115.25043	1739.66366	19.670750000000123	-21.81436	1730.26962	-6.178629999999897	-32.78459	1647.92987	-7.376529999999903	104.91068	1626.61989	18.914180000000115	-15.38354	1777.99641	-3.845879999999893	42.24168	2017.26085	11.47461000000013	43.817859999999996	1920.04194	73.13485000000011	47.348510000000005	1925.90534	-58.50787999999987	-6.178630000000001	1921.17679	5.863400000000117	-23.64273000000002	1744.83354	175.9019200000001	29.316990000000022	1763.87382	-173.4430699999999	-82.33975000000004	1619.36945	375.3204700000001	-36.69352000000004	1590.99817	371.34849000000014	49.49212000000005	1652.09099	-391.14533999999986	83.15937000000004	1614.70395	-371.8528699999999	-63.17338000000007	1507.71271	559.9859600000001	-88.14010000000007	1540.62339	575.0542600000001	-48.35727000000004	1591.4395	362.3957800000001	109.57618000000006	1537.59712	-564.0209899999999	98.35376000000007	1574.79502	-584.5743999999999	69.98248000000004	1617.66717	-368.4483199999999	-167.9579600000001	1457.59012	692.2591600000001	-100.62346000000008	1463.45352	647.9999700000001	-75.90893000000007	1506.57786	601.6602200000001	97.34500000000008	1508.21709	-736.1400699999999	114.80910000000009	1495.92287	-658.2136299999999	118.52889000000008	1534.06648	-602.1015499999999	-32.784590000000016	1219.90187	140.53239000000008	-53.085810000000016	876.54637	105.16287000000005	-33.604200000000006	876.73551	40.85464000000005	-6.68301000000001	876.04199	81.77233000000005	7.124340000000018	1219.58663	-142.54990999999993	-11.978979999999988	876.10504	-107.05428999999994	-4.287219999999994	877.36598	-40.287209999999945	29.50613000000001	876.8616	-75.78282999999995	4.6024499999999895	839.15933	86.05954000000006	-95.39054000000002	472.66548	94.19264000000001	-77.80035	471.53063	36.69352000000002	43.313480000000006	842.50083	-81.58317999999994	-33.288969999999985	474.49385	-136.62345999999997	-25.21890999999999	468.81959	-77.29596999999997	-122.37478	331.7548	46.59194000000001	56.931699999999985	335.28545	97.72329000000002	13.807349999999978	335.91592	174.70402000000004	57.81435999999998	336.10506	147.40455000000003	-84.67250000000001	330.36776	67.71278	121.87039999999998	341.14885	183.21540000000005	-65.82135999999998	330.87214	-93.56217	120.16812000000002	339.38352	-83.66373999999998	104.65849000000001	335.09631	-170.35375999999997	137.25393000000003	338.12258	-130.25568999999993	-23.26444999999999	330.11557	-101.12783999999999	209.38002000000003	344.17511	-143.49560999999994	
101	1.667	0.0	1249.97542	7.653891985579342E-14	28.434319999999982	1347.13128	131.8949100000001	71.55867000000002	1348.01394	-113.6742499999999	-14.753060000000012	1403.6847	102.07355000000008	20.74256000000001	1404.44126	-99.86689999999992	-53.21191000000001	1192.09802	42.493870000000065	-35.43256999999999	1192.4763	-58.507879999999936	-62.35376	1262.39574	-10.90717999999993	-39.21541	1352.86859	-6.683009999999922	-33.03678	1457.21184	-5.926439999999916	-34.10858	1552.72847	-6.746059999999909	115.50262	1739.60062	19.670750000000123	-21.62522	1730.26962	-6.178629999999897	-32.65849	1647.92987	-7.376529999999903	105.03677	1626.55684	18.914180000000115	-15.13135	1777.99641	-3.782839999999893	42.49387	2017.1978	11.537650000000129	44.070049999999995	1919.97889	73.19789000000011	47.60070000000001	1925.96838	-58.444829999999875	-5.926440000000001	1921.17679	5.926440000000117	-23.45359000000002	1744.89659	175.9019200000001	29.56918000000002	1763.81077	-173.4430699999999	-82.21366000000005	1619.36945	375.3204700000001	-36.50438000000004	1590.99817	371.34849000000014	49.80735000000005	1652.02794	-391.14533999999986	83.47460000000004	1614.6409	-371.7898199999999	-63.04728000000007	1507.58662	559.9229100000001	-88.01401000000007	1540.4973	574.9912200000001	-48.23117000000004	1591.37646	362.3957800000001	109.89141000000006	1537.40798	-563.9579399999999	98.66900000000007	1574.60588	-584.5113599999999	70.23467000000004	1617.60412	-368.3852699999999	-167.8949100000001	1457.40098	692.1330700000001	-100.56042000000008	1463.26438	647.8738700000001	-75.84588000000007	1506.45177	601.5971700000001	97.72329000000009	1507.9649	-736.0139699999999	115.18738000000009	1495.67068	-658.0875299999999	118.84413000000008	1533.87733	-601.9754499999999	-32.84763000000002	1219.90187	140.53239000000008	-53.14886000000001	876.54637	105.16287000000005	-33.66725000000001	876.73551	40.85464000000005	-6.74606000000001	876.04199	81.77233000000005	7.124340000000018	1219.58663	-142.54990999999993	-11.978979999999988	876.10504	-107.05428999999994	-4.287219999999994	877.36598	-40.287209999999945	29.50613000000001	876.8616	-75.71978999999995	4.539399999999989	839.15933	86.05954000000006	-95.45359000000002	472.66548	94.19264000000001	-77.86339	471.53063	36.69352000000002	43.313480000000006	842.50083	-81.58317999999994	-33.288969999999985	474.49385	-136.62345999999997	-25.28195999999999	468.81959	-77.29596999999997	-122.43782	331.7548	46.654990000000005	56.86864999999999	335.28545	97.78633000000002	13.807349999999978	335.91592	174.76707000000002	57.751309999999975	336.10506	147.46759000000003	-84.73555000000002	330.36776	67.77583	121.80734999999997	341.14885	183.27845000000005	-65.88440999999999	330.87214	-93.56217	120.16812000000002	339.38352	-83.60069999999997	104.59544000000001	335.09631	-170.35375999999997	137.19089000000002	338.12258	-130.25568999999993	-23.32748999999999	330.11557	-101.12783999999999	209.31698000000003	344.17511	-143.49560999999994	
102	1.683	0.0	1249.97542	7.653891985579342E-14	28.434319999999982	1347.13128	131.9579600000001	71.62171000000001	1348.01394	-113.6111999999999	-14.690020000000013	1403.6847	102.07355000000008	20.80560000000001	1404.44126	-99.86689999999992	-53.21191000000001	1192.09802	42.493870000000065	-35.43256999999999	1192.4763	-58.507879999999936	-62.35376	1262.45878	-10.90717999999993	-39.15236	1352.86859	-6.683009999999922	-32.91068	1457.21184	-5.926439999999916	-33.98249	1552.72847	-6.746059999999909	115.69176	1739.53757	19.73380000000012	-21.37303	1730.26962	-6.115589999999897	-32.46935	1647.99291	-7.3134799999999025	105.22591	1626.49379	18.977230000000112	-14.87916	1777.99641	-3.782839999999893	42.74606	2017.1978	11.726790000000129	44.38528999999999	1919.91584	73.32399000000011	47.789840000000005	1925.96838	-58.31873999999987	-5.674260000000001	1921.17679	6.052540000000116	-23.26445000000002	1744.89659	175.9649700000001	29.82136000000002	1763.81077	-173.4430699999999	-82.08756000000004	1619.3064	375.3204700000001	-36.44133000000004	1590.93512	371.34849000000014	50.05954000000005	1651.96489	-391.0822899999999	83.78984000000004	1614.57785	-371.7267799999999	-62.98424000000007	1507.46052	559.8598700000001	-87.95096000000007	1540.3712	574.9912200000001	-48.105080000000044	1591.37646	362.3957800000001	110.20665000000007	1537.21884	-563.8318499999999	98.98423000000007	1574.41674	-584.3852599999999	70.54991000000004	1617.54108	-368.2591799999999	-167.8318700000001	1457.27489	692.0700200000001	-100.49737000000009	1463.13828	647.8108300000001	-75.78283000000008	1506.32567	601.5341200000001	98.03852000000009	1507.71271	-735.8878799999999	115.50262000000008	1495.48154	-657.8983899999998	119.15936000000008	1533.68819	-601.9124099999999	-32.84763000000002	1219.90187	140.53239000000008	-53.21191000000002	876.54637	105.16287000000005	-33.66725000000001	876.73551	40.85464000000005	-6.80911000000001	876.04199	81.83537000000005	7.1873900000000175	1219.58663	-142.54990999999993	-12.042029999999988	876.10504	-106.99123999999995	-4.350259999999994	877.36598	-40.287209999999945	29.44308000000001	876.8616	-75.71978999999995	4.476359999999989	839.15933	86.12259000000006	-95.51663000000002	472.72852	94.25569000000002	-77.92644	471.53063	36.756570000000025	43.250440000000005	842.50083	-81.52013999999994	-33.352009999999986	474.49385	-136.62345999999997	-25.345009999999988	468.81959	-77.23291999999996	-122.50087	331.7548	46.71804000000001	56.805599999999984	335.28545	97.84938000000001	13.74430999999998	335.91592	174.83011000000002	57.68825999999998	336.10506	147.53064000000003	-84.79859000000002	330.36776	67.83888	121.74429999999997	341.14885	183.34150000000005	-65.94745999999999	330.87214	-93.49912	120.10507000000001	339.38352	-83.60069999999997	104.59544000000001	335.09631	-170.29070999999996	137.19089000000002	338.12258	-130.19263999999995	-23.39053999999999	330.11557	-101.06478999999999	209.31698000000003	344.23816	-143.43256999999994	
103	1.7	0.0	1249.97542	7.653891985579342E-14	28.434319999999982	1347.13128	131.9579600000001	71.68476000000001	1348.01394	-113.6111999999999	-14.690020000000013	1403.6847	102.07355000000008	20.86865000000001	1404.44126	-99.86689999999992	-53.21191000000001	1192.09802	42.43082000000006	-35.43256999999999	1192.4763	-58.507879999999936	-62.35376	1262.45878	-10.90717999999993	-39.15236	1352.86859	-6.683009999999922	-32.84763	1457.21184	-5.926439999999916	-33.85639	1552.72847	-6.746059999999909	115.88091	1739.47452	19.79685000000012	-21.18389	1730.33267	-6.115589999999897	-32.28021	1647.99291	-7.3134799999999025	105.35201	1626.43074	19.040280000000113	-14.69002	1777.99641	-3.719789999999893	42.99825	2017.1978	11.91594000000013	44.70051999999999	1919.8528	73.38704000000011	47.97898000000001	1925.96838	-58.25568999999987	-5.422070000000001	1921.11374	6.178630000000116	-23.075310000000023	1744.89659	175.9649700000001	30.073550000000022	1763.87382	-173.3800299999999	-81.96147000000005	1619.3064	375.3204700000001	-36.31523000000004	1590.87208	371.34849000000014	50.37478000000005	1651.90185	-391.0192499999999	84.04203000000004	1614.51481	-371.6637299999999	-62.921190000000074	1507.39747	559.7968200000001	-87.88791000000008	1540.30816	574.9281700000001	-48.04203000000004	1591.31341	362.3957800000001	110.45884000000007	1537.09274	-563.7057499999999	99.29947000000007	1574.29064	-584.3222099999999	70.80210000000004	1617.54108	-368.19612999999987	-167.8318700000001	1457.14879	692.0069700000001	-100.43432000000008	1463.01219	647.7477800000001	-75.71979000000007	1506.19958	601.4710700000002	98.35376000000008	1507.46052	-735.7617899999999	115.75481000000009	1495.2924	-657.7722999999999	119.47460000000007	1533.49905	-601.7863099999998	-32.91068000000001	1219.96491	140.53239000000008	-53.27495000000001	876.54637	105.22591000000006	-33.73030000000001	876.73551	40.91769000000005	-6.80911000000001	876.04199	81.83537000000005	7.1873900000000175	1219.58663	-142.54990999999993	-12.042029999999988	876.10504	-106.99123999999995	-4.350259999999994	877.36598	-40.224169999999944	29.44308000000001	876.8616	-75.65673999999994	4.413309999999989	839.15933	86.12259000000006	-95.57968000000001	472.72852	94.31873000000002	-77.98949	471.53063	36.81961000000002	43.250440000000005	842.50083	-81.52013999999994	-33.41505999999998	474.49385	-136.56040999999996	-25.40804999999999	468.81959	-77.23291999999996	-122.56392	331.7548	46.78108000000001	56.74254999999999	335.28545	97.91243000000001	13.681259999999979	335.97897	174.89316000000002	57.62521999999998	336.10506	147.59369000000004	-84.86164000000001	330.36776	67.90192	121.68125999999997	341.14885	183.40454000000005	-66.01049999999998	330.87214	-93.43607	120.04203000000001	339.44657	-83.53764999999997	104.53239000000002	335.09631	-170.29070999999996	137.12784000000002	338.12258	-130.19263999999995	-23.39053999999999	330.11557	-101.06478999999999	209.25393000000003	344.23816	-143.36951999999994	
